# xmcd CD database file
#
# Track frame offsets:
#	150
#	22526
#	36490
#
# Disc length: 699 seconds
#
# Revision: 0
# Processed by: cddbd v1.5.1PL2 Copyright (c) Steve Scherf et al.
# Submitted via: CDex 1.50beta9
#
DISCID=1702b903
DTITLE=有希 - 未来道
DYEAR=2005
DGENRE=JPop
TTITLE0=未来道
TTITLE1=水色のいちぺーじ
TTITLE2=流れ星
EXTD=YEAR: 2005
EXTT0=
EXTT1=
EXTT2=
PLAYORDER=
